<mxfile host="app.diagrams.net" modified="2023-09-25T04:53:55.614Z" agent="Mozilla/5.0 (Macintosh; Intel Mac OS X 10_15_7) AppleWebKit/537.36 (KHTML, like Gecko) Chrome/116.0.0.0 Safari/537.36" etag="odJm4peO0XCH-AVHVjlI" version="21.8.2" type="device">
  <diagram name="Page-1" id="sIAiY6_3SVm08DnSAYK-">
    <mxGraphModel dx="794" dy="1665" grid="1" gridSize="10" guides="1" tooltips="1" connect="1" arrows="1" fold="1" page="1" pageScale="1" pageWidth="827" pageHeight="1169" math="0" shadow="0">
      <root>
        <mxCell id="0" />
        <mxCell id="1" parent="0" />
        <mxCell id="56Ka4vMJOFkWBKXNJvnk-1" value="VPC" style="points=[[0,0],[0.25,0],[0.5,0],[0.75,0],[1,0],[1,0.25],[1,0.5],[1,0.75],[1,1],[0.75,1],[0.5,1],[0.25,1],[0,1],[0,0.75],[0,0.5],[0,0.25]];outlineConnect=0;gradientColor=none;html=1;whiteSpace=wrap;fontSize=12;fontStyle=0;container=1;pointerEvents=0;collapsible=0;recursiveResize=0;shape=mxgraph.aws4.group;grIcon=mxgraph.aws4.group_vpc;strokeColor=#248814;fillColor=none;verticalAlign=top;align=left;spacingLeft=30;fontColor=#AAB7B8;dashed=0;" vertex="1" parent="1">
          <mxGeometry x="120" y="120" width="640" height="520" as="geometry" />
        </mxCell>
        <mxCell id="56Ka4vMJOFkWBKXNJvnk-13" value="" style="rounded=1;arcSize=10;dashed=1;strokeColor=#F59D56;fillColor=none;gradientColor=none;dashPattern=8 4;strokeWidth=2;" vertex="1" parent="56Ka4vMJOFkWBKXNJvnk-1">
          <mxGeometry x="370" y="10" width="199.5" height="460" as="geometry" />
        </mxCell>
        <mxCell id="56Ka4vMJOFkWBKXNJvnk-12" value="" style="rounded=1;arcSize=10;dashed=1;strokeColor=#F59D56;fillColor=none;gradientColor=none;dashPattern=8 4;strokeWidth=2;" vertex="1" parent="56Ka4vMJOFkWBKXNJvnk-1">
          <mxGeometry x="56" y="10" width="199.5" height="460" as="geometry" />
        </mxCell>
        <mxCell id="56Ka4vMJOFkWBKXNJvnk-2" value="Public subnet" style="points=[[0,0],[0.25,0],[0.5,0],[0.75,0],[1,0],[1,0.25],[1,0.5],[1,0.75],[1,1],[0.75,1],[0.5,1],[0.25,1],[0,1],[0,0.75],[0,0.5],[0,0.25]];outlineConnect=0;gradientColor=none;html=1;whiteSpace=wrap;fontSize=12;fontStyle=0;container=1;pointerEvents=0;collapsible=0;recursiveResize=0;shape=mxgraph.aws4.group;grIcon=mxgraph.aws4.group_security_group;grStroke=0;strokeColor=#248814;fillColor=#E9F3E6;verticalAlign=top;align=left;spacingLeft=30;fontColor=#248814;dashed=0;" vertex="1" parent="56Ka4vMJOFkWBKXNJvnk-1">
          <mxGeometry x="90" y="30" width="130" height="130" as="geometry" />
        </mxCell>
        <mxCell id="56Ka4vMJOFkWBKXNJvnk-26" value="" style="outlineConnect=0;dashed=0;verticalLabelPosition=bottom;verticalAlign=top;align=center;html=1;shape=mxgraph.aws3.instance;fillColor=#F58534;gradientColor=none;" vertex="1" parent="56Ka4vMJOFkWBKXNJvnk-2">
          <mxGeometry x="35.75" y="33.5" width="60" height="63" as="geometry" />
        </mxCell>
        <mxCell id="56Ka4vMJOFkWBKXNJvnk-3" value="Public subnet" style="points=[[0,0],[0.25,0],[0.5,0],[0.75,0],[1,0],[1,0.25],[1,0.5],[1,0.75],[1,1],[0.75,1],[0.5,1],[0.25,1],[0,1],[0,0.75],[0,0.5],[0,0.25]];outlineConnect=0;gradientColor=none;html=1;whiteSpace=wrap;fontSize=12;fontStyle=0;container=1;pointerEvents=0;collapsible=0;recursiveResize=0;shape=mxgraph.aws4.group;grIcon=mxgraph.aws4.group_security_group;grStroke=0;strokeColor=#248814;fillColor=#E9F3E6;verticalAlign=top;align=left;spacingLeft=30;fontColor=#248814;dashed=0;" vertex="1" parent="56Ka4vMJOFkWBKXNJvnk-1">
          <mxGeometry x="410" y="30" width="130" height="130" as="geometry" />
        </mxCell>
        <mxCell id="56Ka4vMJOFkWBKXNJvnk-4" value="Private subnet" style="points=[[0,0],[0.25,0],[0.5,0],[0.75,0],[1,0],[1,0.25],[1,0.5],[1,0.75],[1,1],[0.75,1],[0.5,1],[0.25,1],[0,1],[0,0.75],[0,0.5],[0,0.25]];outlineConnect=0;gradientColor=none;html=1;whiteSpace=wrap;fontSize=12;fontStyle=0;container=1;pointerEvents=0;collapsible=0;recursiveResize=0;shape=mxgraph.aws4.group;grIcon=mxgraph.aws4.group_security_group;grStroke=0;strokeColor=#147EBA;fillColor=#E6F2F8;verticalAlign=top;align=left;spacingLeft=30;fontColor=#147EBA;dashed=0;" vertex="1" parent="56Ka4vMJOFkWBKXNJvnk-1">
          <mxGeometry x="90" y="180" width="130" height="110" as="geometry" />
        </mxCell>
        <mxCell id="56Ka4vMJOFkWBKXNJvnk-30" value="" style="outlineConnect=0;dashed=0;verticalLabelPosition=bottom;verticalAlign=top;align=center;html=1;shape=mxgraph.aws3.instance;fillColor=#F58534;gradientColor=none;" vertex="1" parent="56Ka4vMJOFkWBKXNJvnk-4">
          <mxGeometry x="36" y="29" width="54" height="61" as="geometry" />
        </mxCell>
        <mxCell id="56Ka4vMJOFkWBKXNJvnk-9" value="Private subnet" style="points=[[0,0],[0.25,0],[0.5,0],[0.75,0],[1,0],[1,0.25],[1,0.5],[1,0.75],[1,1],[0.75,1],[0.5,1],[0.25,1],[0,1],[0,0.75],[0,0.5],[0,0.25]];outlineConnect=0;gradientColor=none;html=1;whiteSpace=wrap;fontSize=12;fontStyle=0;container=1;pointerEvents=0;collapsible=0;recursiveResize=0;shape=mxgraph.aws4.group;grIcon=mxgraph.aws4.group_security_group;grStroke=0;strokeColor=#147EBA;fillColor=#E6F2F8;verticalAlign=top;align=left;spacingLeft=30;fontColor=#147EBA;dashed=0;" vertex="1" parent="56Ka4vMJOFkWBKXNJvnk-1">
          <mxGeometry x="420" y="180" width="130" height="110" as="geometry" />
        </mxCell>
        <mxCell id="56Ka4vMJOFkWBKXNJvnk-10" value="Private subnet" style="points=[[0,0],[0.25,0],[0.5,0],[0.75,0],[1,0],[1,0.25],[1,0.5],[1,0.75],[1,1],[0.75,1],[0.5,1],[0.25,1],[0,1],[0,0.75],[0,0.5],[0,0.25]];outlineConnect=0;gradientColor=none;html=1;whiteSpace=wrap;fontSize=12;fontStyle=0;container=1;pointerEvents=0;collapsible=0;recursiveResize=0;shape=mxgraph.aws4.group;grIcon=mxgraph.aws4.group_security_group;grStroke=0;strokeColor=#147EBA;fillColor=#E6F2F8;verticalAlign=top;align=left;spacingLeft=30;fontColor=#147EBA;dashed=0;" vertex="1" parent="56Ka4vMJOFkWBKXNJvnk-1">
          <mxGeometry x="90" y="340" width="130" height="100" as="geometry" />
        </mxCell>
        <mxCell id="56Ka4vMJOFkWBKXNJvnk-11" value="Private subnet" style="points=[[0,0],[0.25,0],[0.5,0],[0.75,0],[1,0],[1,0.25],[1,0.5],[1,0.75],[1,1],[0.75,1],[0.5,1],[0.25,1],[0,1],[0,0.75],[0,0.5],[0,0.25]];outlineConnect=0;gradientColor=none;html=1;whiteSpace=wrap;fontSize=12;fontStyle=0;container=1;pointerEvents=0;collapsible=0;recursiveResize=0;shape=mxgraph.aws4.group;grIcon=mxgraph.aws4.group_security_group;grStroke=0;strokeColor=#147EBA;fillColor=#E6F2F8;verticalAlign=top;align=left;spacingLeft=30;fontColor=#147EBA;dashed=0;" vertex="1" parent="56Ka4vMJOFkWBKXNJvnk-1">
          <mxGeometry x="420" y="330" width="130" height="100" as="geometry" />
        </mxCell>
        <mxCell id="56Ka4vMJOFkWBKXNJvnk-14" value="ap-south-1a" style="text;html=1;align=center;verticalAlign=middle;resizable=0;points=[];autosize=1;strokeColor=none;fillColor=none;" vertex="1" parent="56Ka4vMJOFkWBKXNJvnk-1">
          <mxGeometry x="110" y="470" width="90" height="30" as="geometry" />
        </mxCell>
        <mxCell id="56Ka4vMJOFkWBKXNJvnk-15" value="ap-south-1b" style="text;html=1;align=center;verticalAlign=middle;resizable=0;points=[];autosize=1;strokeColor=none;fillColor=none;" vertex="1" parent="56Ka4vMJOFkWBKXNJvnk-1">
          <mxGeometry x="430" y="469" width="90" height="30" as="geometry" />
        </mxCell>
        <mxCell id="56Ka4vMJOFkWBKXNJvnk-27" style="edgeStyle=orthogonalEdgeStyle;rounded=0;orthogonalLoop=1;jettySize=auto;html=1;flowAnimation=1;" edge="1" parent="1" source="56Ka4vMJOFkWBKXNJvnk-16" target="56Ka4vMJOFkWBKXNJvnk-25">
          <mxGeometry relative="1" as="geometry">
            <Array as="points">
              <mxPoint x="440" y="-15" />
            </Array>
          </mxGeometry>
        </mxCell>
        <mxCell id="56Ka4vMJOFkWBKXNJvnk-16" value="Internet&#xa;gateway" style="sketch=0;outlineConnect=0;fontColor=#232F3E;gradientColor=none;strokeColor=#232F3E;fillColor=#ffffff;dashed=0;verticalLabelPosition=bottom;verticalAlign=top;align=center;html=1;fontSize=12;fontStyle=0;aspect=fixed;shape=mxgraph.aws4.resourceIcon;resIcon=mxgraph.aws4.internet_gateway;" vertex="1" parent="1">
          <mxGeometry x="410" y="90" width="60" height="60" as="geometry" />
        </mxCell>
        <mxCell id="56Ka4vMJOFkWBKXNJvnk-23" style="edgeStyle=orthogonalEdgeStyle;rounded=0;orthogonalLoop=1;jettySize=auto;html=1;flowAnimation=1;" edge="1" parent="1" source="56Ka4vMJOFkWBKXNJvnk-2" target="56Ka4vMJOFkWBKXNJvnk-16">
          <mxGeometry relative="1" as="geometry">
            <Array as="points">
              <mxPoint x="430" y="215" />
            </Array>
          </mxGeometry>
        </mxCell>
        <mxCell id="56Ka4vMJOFkWBKXNJvnk-24" style="edgeStyle=orthogonalEdgeStyle;rounded=0;orthogonalLoop=1;jettySize=auto;html=1;flowAnimation=1;" edge="1" parent="1" source="56Ka4vMJOFkWBKXNJvnk-3" target="56Ka4vMJOFkWBKXNJvnk-16">
          <mxGeometry relative="1" as="geometry">
            <Array as="points">
              <mxPoint x="430" y="215" />
            </Array>
          </mxGeometry>
        </mxCell>
        <mxCell id="56Ka4vMJOFkWBKXNJvnk-28" style="edgeStyle=orthogonalEdgeStyle;rounded=0;orthogonalLoop=1;jettySize=auto;html=1;flowAnimation=1;" edge="1" parent="1" source="56Ka4vMJOFkWBKXNJvnk-25" target="56Ka4vMJOFkWBKXNJvnk-16">
          <mxGeometry relative="1" as="geometry" />
        </mxCell>
        <mxCell id="56Ka4vMJOFkWBKXNJvnk-25" value="Google.com" style="image;aspect=fixed;perimeter=ellipsePerimeter;html=1;align=center;shadow=0;dashed=0;spacingTop=3;image=img/lib/active_directory/internet_globe.svg;" vertex="1" parent="1">
          <mxGeometry x="550" y="-40" width="50" height="50" as="geometry" />
        </mxCell>
        <mxCell id="56Ka4vMJOFkWBKXNJvnk-32" style="edgeStyle=orthogonalEdgeStyle;rounded=0;orthogonalLoop=1;jettySize=auto;html=1;" edge="1" parent="1" source="56Ka4vMJOFkWBKXNJvnk-31" target="56Ka4vMJOFkWBKXNJvnk-26">
          <mxGeometry relative="1" as="geometry">
            <Array as="points">
              <mxPoint x="420" y="-25" />
              <mxPoint x="420" y="110" />
              <mxPoint x="276" y="110" />
            </Array>
          </mxGeometry>
        </mxCell>
        <mxCell id="56Ka4vMJOFkWBKXNJvnk-31" value="" style="verticalLabelPosition=bottom;html=1;verticalAlign=top;align=center;strokeColor=none;fillColor=#00BEF2;shape=mxgraph.azure.laptop;pointerEvents=1;" vertex="1" parent="1">
          <mxGeometry x="230" y="-50" width="70" height="50" as="geometry" />
        </mxCell>
      </root>
    </mxGraphModel>
  </diagram>
</mxfile>
